<svg xmlns="http://www.w3.org/2000/svg" viewBox="0 0 462.82 512"><title>Asset 3</title><g id="Layer_2" data-name="Layer 2"><g id="Layer_1-2" data-name="Layer 1"><path d="M460.46,512h-172c-2.92-2.39-2.21-5.77-2.22-8.84-.08-32,0-64-.05-96,0-15.16,0-30.32,0-45.49,0-7.65-.76-8.41-8.24-8.42q-46.49-.06-93,0c-7.48,0-8.22.77-8.23,8.42,0,46.82,0,93.64-.07,140.46,0,3.38,1,7.11-2.21,9.84H2.46a6.14,6.14,0,0,1-2.15-4.85c-.09-2.33-.12-4.66-.12-7Q.19,256,.25,11.84c0-4-1.36-8.43,2.21-11.84h114c2.94,2.39,2.18,5.77,2.19,8.84.07,31.66,0,63.32,0,95,0,2.5,0,5,0,7.5,0,9.47,0,9.49,8.89,12,79,22.48,157.84,45.26,236.79,67.79q44,12.54,87.88,25.21c1.92.55,3.85,1.11,5.71,1.84a6.7,6.7,0,0,1,4.54,6c.19,2.33.18,4.66.18,7q0,135.24-.05,270.47C462.63,505.19,463.76,509.11,460.46,512Z"/></g></g></svg>