<svg xmlns="http://www.w3.org/2000/svg" viewBox="0 0 426.19 426.19"><title>Asset 2</title><g id="Layer_2" data-name="Layer 2"><g id="Layer_1-2" data-name="Layer 1"><g id="OPuEvl"><path d="M213.21,0a213.1,213.1,0,1,1-.49,426.19C94.82,426.06-.15,330.71,0,212.6.15,94.93,95.4,0,213.21,0ZM188.48,307.52c6.81,12.67,16.86,20.1,30.16,22.68,28.15,5.46,53.95-.75,77.09-17.27,38.64-27.6,57.65-82.28,46-130.93C324.25,109.14,249.6,65.49,177,85.52c-54.47,15-92.72,62.35-96.33,115.33-1.62,23.85,3,46,16.29,66,5.32,8,12,14.76,20.48,19.39,4.84,2.63,9.77.89,10.89-3.7,2.83-11.66,2.23-23-2.82-34.07A91,91,0,0,1,119.05,192c6.8-34.92,35-64.61,69.86-71.57,38.64-7.73,71,3.81,94.73,35.54,24.8,33.19,22.35,82.34-4.14,116.34-13.29,17.05-29.64,26.91-51.91,24.81-12.71-1.2-22.1-8.62-23.45-21.17a85.29,85.29,0,0,1,1.79-27.62c3.32-14.53,8.44-28.64,12.58-43,2.82-9.79,2.48-19.49-2.77-28.5-11.29-19.39-39-18.19-50.91,2.5a67.7,67.7,0,0,0-9,41.27c1.56,14.78,3.42,29.51.47,44.24-4.41,22-9.12,43.9-13.81,65.83-4.87,22.79-9.81,45.55-8.42,69.11.38,6.5,2.17,9.75,6.79,10.85,5.2,1.25,7.84-2.09,10.44-5.83,12.79-18.39,20.93-38.83,26.85-60.28C181.5,332.4,184.9,320.32,188.48,307.52Z"/></g></g></g></svg>