<svg xmlns="http://www.w3.org/2000/svg" viewBox="0 0 55.86 45.4"><title>Asset 1</title><g id="Layer_2" data-name="Layer 2"><g id="Blue"><path d="M55.86,5.37a22.67,22.67,0,0,1-6.58,1.81,11.48,11.48,0,0,0,5-6.34A22.91,22.91,0,0,1,47,3.62a11.46,11.46,0,0,0-19.82,7.84,11.8,11.8,0,0,0,.29,2.61A32.52,32.52,0,0,1,3.89,2.1,11.47,11.47,0,0,0,7.44,17.4,11.57,11.57,0,0,1,2.24,16v.14a11.47,11.47,0,0,0,9.2,11.24,11.58,11.58,0,0,1-3,.4,11.81,11.81,0,0,1-2.16-.2A11.47,11.47,0,0,0,17,35.5,23,23,0,0,1,2.73,40.41,22.48,22.48,0,0,1,0,40.25,32.46,32.46,0,0,0,17.57,45.4c21.08,0,32.61-17.46,32.61-32.61,0-.5,0-1,0-1.48A23.2,23.2,0,0,0,55.86,5.37Z"/></g></g></svg>